<svg xmlns="http://www.w3.org/2000/svg" width="463" height="542" viewBox="0 0 463 542" fill="none">
    <path d="M425.204 180.517V361.483L231.5 497.207L37.7959 361.483V180.517L231.5 44.7934L425.204 180.517Z"
          fill="#A78BFA"></path>
    <path d="M392.133 199.779V346.701L231.5 456.893L70.8674 346.701V199.779L231.5 89.5868L392.133 199.779Z"
          fill="#1F1F28"></path>
    <path d="M463 162.6V379.4L231.5 542L0 379.4V162.6L231.5 0L463 162.6Z" fill="#1F1F28"></path>
    <path d="M423.476 185.675V361.691L231.5 493.703L39.5244 361.691V185.675L231.5 53.6634L423.476 185.675Z"
          fill="#A78BFA"></path>
    <path d="M425.204 180.517V361.483L231.5 497.207L37.7959 361.483V180.517L231.5 44.7934L425.204 180.517Z"
          fill="#A78BFA"></path>
    <path d="M392.133 199.779V346.701L231.5 456.893L70.8674 346.701V199.779L231.5 89.5868L392.133 199.779Z"
          fill="#1F1F28"></path>
    <path d="M424.608 180.44V361.406L230.904 497.13L37.1994 361.406V180.44L230.904 44.7163L424.608 180.44Z"
          fill="#A78BFA"></path>
    <path d="M391.536 199.701V346.624L230.904 456.815L70.2709 346.624V199.701L230.904 89.5097L391.536 199.701Z"
          fill="#1F1F28"></path>
    <path d="M352.066 214.197V326.807L231.5 411.264L110.934 326.807V214.197L231.5 129.74L352.066 214.197Z"
          fill="#42CDAA"></path>
    <path d="M318.028 232.591V311.2L231.5 370.158L144.972 311.2V232.591L231.5 173.634L318.028 232.591Z"
          fill="#1F1F28"></path>
    <path d="M280.989 247.199V293.805L231.168 328.759L181.347 293.805V247.199L231.168 212.245L280.989 247.199Z"
          fill="#FA8B8D"></path>
</svg>