<svg width="515" height="75" viewBox="0 0 515 75" fill="none" xmlns="http://www.w3.org/2000/svg">
<path d="M5.22449 24.9794V50.0207L32 68.8017L58.7755 50.0207V24.9794L32 6.19836L5.22449 24.9794Z" fill="#A78BFA"/>
<path d="M9.79592 27.6446V47.9752L32 63.2232L54.2041 47.9752V27.6446L32 12.3967L9.79592 27.6446Z" fill="#1F1F28"/>
<path d="M2.38419e-06 22.5V52.5L32 75L64 52.5V22.5L32 0L2.38419e-06 22.5Z" fill="#1F1F28"/>
<path d="M5.46342 25.6931V50.0495L32 68.3168L58.5366 50.0495V25.6931L32 7.42574L5.46342 25.6931Z" fill="#A78BFA"/>
<path d="M5.22449 24.9794V50.0207L32 68.8017L58.7755 50.0207V24.9794L32 6.19836L5.22449 24.9794Z" fill="#A78BFA"/>
<path d="M9.79592 27.6446V47.9752L32 63.2232L54.2041 47.9752V27.6446L32 12.3967L9.79592 27.6446Z" fill="#1F1F28"/>
<path d="M5.30694 24.9686V50.0099L32.0825 68.7909L58.858 50.0099V24.9686L32.0825 6.18762L5.30694 24.9686Z" fill="#A78BFA"/>
<path d="M9.87837 27.6339V47.9645L32.0825 63.2124L54.2865 47.9645V27.6339L32.0825 12.386L9.87837 27.6339Z" fill="#1F1F28"/>
<path d="M15.3343 29.6399V45.2224L32 56.9092L48.6657 45.2224V29.6399L32 17.953L15.3343 29.6399Z" fill="#42CDAA"/>
<path d="M20.0394 32.1851V43.0628L32 51.2211L43.9606 43.0628V32.1851L32 24.0268L20.0394 32.1851Z" fill="#1F1F28"/>
<path d="M25.1593 34.2065V40.6556L32.0459 45.4924L38.9326 40.6556V34.2065L32.0459 29.3696L25.1593 34.2065Z" fill="#FA8B8D"/>
<path d="M120.126 11L137.589 60.5028H130.743L126.622 48.7635H104.967L100.846 60.5028H94L111.464 11H120.126ZM115.725 18.0011L107.202 42.3989H124.387L115.864 18.0011H115.725Z" fill="#D9D9D9"/>
<path d="M151.355 60.5028L144.579 56.5425V50.1779L149.539 47.2785L144.579 44.379V29.8818L152.682 25.1436H174.966V27.5481L168.609 31.2961L172.87 33.842V43.6011L164.767 48.3392H151.355V54.3503H166.863L174.966 59.0884V70.2619L166.863 75H151.285L143.182 70.2619V65.8774L149.958 61.9171V68.989H168.19V60.5028H151.355ZM151.355 31.1547V42.3282H166.094V31.1547H151.355Z" fill="#D9D9D9"/>
<path d="M212.351 54.3503V60.5028H192.862L184.759 55.7646V29.5282L192.862 24.7901H204.248L212.351 29.5282V45.2276H191.535V54.3503H212.351ZM191.535 30.9425V39.0751H205.576V30.9425H191.535Z" fill="#D9D9D9"/>
<path d="M253.194 29.5282V60.5028H246.419V30.9425H230.282V60.5028H223.506V24.7901H228.606L230.282 27.6895L235.242 24.7901H245.091L253.194 29.5282Z" fill="#D9D9D9"/>
<path d="M261.574 31.2961V25.1436H268.001V19.2033L274.777 15.2431V25.1436H283.159V31.2961H274.777V54.3503H283.159V60.5028H276.104L268.001 55.7646V31.2961H261.574Z" fill="#D9D9D9"/>
<path d="M318.781 38.2265V60.5028H311.796V11H340.366V17.3646H318.781V31.8619H336.175V38.2265H318.781Z" fill="#D9D9D9"/>
<path d="M353.45 46.0055V54.7039H367.49V46.0055H353.45ZM354.777 60.8564L346.674 56.1182V44.5912L354.777 39.853H367.49V31.2961H350.167V25.1436H366.163L374.266 29.8818V60.8564H372.45L367.49 57.9569L362.531 60.8564H354.777Z" fill="#D9D9D9"/>
<path d="M392.23 31.2961V54.3503H411.649V60.5028H393.557L385.454 55.7646V29.8818L393.557 25.1436H411.649V31.2961H392.23Z" fill="#D9D9D9"/>
<path d="M448.997 54.3503V60.5028H429.507L421.404 55.7646V29.5282L429.507 24.7901H440.894L448.997 29.5282V45.2276H428.18V54.3503H448.997ZM428.18 30.9425V39.0751H442.221V30.9425H428.18Z" fill="#D9D9D9"/>
<path d="M457.358 31.2961V25.1436H463.784V19.2033L470.56 15.2431V25.1436H478.943V31.2961H470.56V54.3503H478.943V60.5028H471.887L463.784 55.7646V31.2961H457.358Z" fill="#D9D9D9"/>
<path d="M515 44.2376V55.7646L506.897 60.5028H488.735V54.3503H508.224V45.6519H496.838L488.735 40.9138V29.8818L496.838 25.1436H514.301V31.2961H495.511V39.4994H506.897L515 44.2376Z" fill="#D9D9D9"/>
</svg>
